<svg width="966" height="343" viewBox="0 0 966 343" fill="none" xmlns="http://www.w3.org/2000/svg">
<mask id="mask0" mask-type="alpha" maskUnits="userSpaceOnUse" x="8" y="8" width="284" height="323">
<path fill-rule="evenodd" clip-rule="evenodd" d="M150 8C197.72 32.225 245.001 59.5281 289.837 88.7498C292.721 142.197 292.721 196.803 289.837 250.25C245.001 279.472 197.72 306.775 150 331C102.28 306.775 54.9986 279.472 10.1633 250.25C7.27889 196.803 7.27889 142.197 10.1633 88.7498C54.9986 59.5281 102.28 32.225 150 8Z" fill="#558565"/>
</mask>
<g mask="url(#mask0)">
<rect x="1" y="4" width="295" height="331" fill="#34D399"/>
<path fill-rule="evenodd" clip-rule="evenodd" d="M182.014 85.7762C182.014 85.7762 180.529 86.6137 178.298 88.0699C177.83 90.4826 177.16 92.7779 176.212 94.7802C171.325 105.098 163.339 111.663 157.586 110.461C153.882 120.477 154.722 129.908 159.902 132.469C165.687 135.327 174.692 128.531 180.014 117.29C185.335 106.051 182.014 85.7762 182.014 85.7762Z" stroke="#ECFDF5" stroke-width="2" stroke-linecap="round" stroke-linejoin="round"/>
<path fill-rule="evenodd" clip-rule="evenodd" d="M188.132 114.179C188.132 114.179 186.599 114.9 184.277 116.183C183.644 118.557 182.817 120.799 181.733 122.729C176.151 132.663 167.748 138.603 162.111 136.948C157.728 146.674 157.901 156.172 162.876 159.138C168.429 162.449 177.86 156.358 183.939 145.537C190.019 134.714 188.132 114.179 188.132 114.179Z" stroke="#ECFDF5" stroke-width="2" stroke-linecap="round" stroke-linejoin="round"/>
<path fill-rule="evenodd" clip-rule="evenodd" d="M191.699 144.284C191.699 144.284 190.103 144.825 187.671 145.835C186.797 148.132 185.744 150.272 184.471 152.072C177.91 161.334 168.971 166.285 163.561 163.983C158.208 173.175 157.391 182.671 162.01 186.203C167.165 190.152 177.138 185.167 184.285 175.078C191.431 164.988 191.699 144.284 191.699 144.284Z" stroke="#ECFDF5" stroke-width="2" stroke-linecap="round" stroke-linejoin="round"/>
<path fill-rule="evenodd" clip-rule="evenodd" d="M192.867 174.48C192.867 174.48 191.223 174.852 188.699 175.602C187.591 177.794 186.321 179.811 184.865 181.469C177.371 189.995 167.965 193.985 162.823 191.131C156.539 199.713 154.736 209.071 158.959 213.068C163.675 217.532 174.113 213.619 182.275 204.33C190.437 195.042 192.867 174.48 192.867 174.48Z" stroke="#ECFDF5" stroke-width="2" stroke-linecap="round" stroke-linejoin="round"/>
<path fill-rule="evenodd" clip-rule="evenodd" d="M191.381 204.053C191.381 204.053 189.724 204.318 187.166 204.903C185.934 207.025 184.552 208.964 183.005 210.526C175.046 218.571 165.448 221.948 160.501 218.752C153.74 226.933 151.395 236.179 155.361 240.458C159.791 245.234 170.411 242.003 179.08 233.241C187.751 224.477 191.381 204.053 191.381 204.053Z" stroke="#ECFDF5" stroke-width="2" stroke-linecap="round" stroke-linejoin="round"/>
<path fill-rule="evenodd" clip-rule="evenodd" d="M188.097 233.544C188.097 233.544 186.439 233.754 183.876 234.263C182.595 236.35 181.169 238.25 179.59 239.767C171.459 247.581 161.809 250.667 156.953 247.311C150.015 255.296 147.452 264.492 151.303 268.906C155.605 273.829 166.27 270.922 175.127 262.41C183.984 253.897 188.097 233.544 188.097 233.544Z" stroke="#ECFDF5" stroke-width="2" stroke-linecap="round" stroke-linejoin="round"/>
<path fill-rule="evenodd" clip-rule="evenodd" d="M175.654 81.3816C176.748 70.12 173.221 56.7477 173.221 56.7477C173.221 56.7477 156.585 68.3793 152.34 80.0783C148.097 91.7776 149.551 103.092 155.59 105.351C156.085 105.536 156.597 105.648 157.119 105.703C162.967 106.321 170.31 98.9969 174.207 88.2564C174.963 86.1712 175.415 83.8261 175.654 81.3816ZM147.255 57.4719C142.151 47.6771 132.018 38.886 132.018 38.886C132.018 38.886 124.219 58.1259 126.902 70.1273C129.587 82.1312 136.869 90.4691 143.17 88.7514C143.685 88.6099 144.178 88.4004 144.649 88.1371C149.91 85.1957 152.181 74.9254 149.716 63.9069C149.238 61.7664 148.363 59.596 147.255 57.4719Z" stroke="#ECFDF5" stroke-width="2" stroke-linecap="round" stroke-linejoin="round"/>
<path fill-rule="evenodd" clip-rule="evenodd" d="M137.42 115.541C132.467 118.252 123.684 116.438 115.772 110.602C114.46 109.634 113.216 108.424 112.046 107.066C108.119 106.812 105.38 106.898 105.38 106.898C105.38 106.898 111.331 126.483 120.891 133.534C130.449 140.585 141.285 141.773 145.094 136.189C145.405 135.732 145.656 135.239 145.857 134.723C147.851 129.581 144.39 121.761 137.42 115.541Z" stroke="#ECFDF5" stroke-width="2" stroke-linecap="round" stroke-linejoin="round"/>
<path fill-rule="evenodd" clip-rule="evenodd" d="M139.47 143.104C134.364 145.47 125.731 143.041 118.222 136.651C116.977 135.591 115.817 134.295 114.737 132.857C110.841 132.327 108.108 132.221 108.108 132.221C108.108 132.221 112.787 152.213 121.861 159.93C130.932 167.648 141.651 169.595 145.8 164.282C146.138 163.847 146.42 163.371 146.652 162.869C148.968 157.869 146.017 149.813 139.47 143.104Z" stroke="#ECFDF5" stroke-width="2" stroke-linecap="round" stroke-linejoin="round"/>
<path fill-rule="evenodd" clip-rule="evenodd" d="M141.105 171.572C135.882 173.57 127.437 170.518 120.348 163.589C119.172 162.438 118.097 161.059 117.108 159.54C113.263 158.732 110.549 158.431 110.549 158.431C110.549 158.431 114.004 178.77 122.571 187.142C131.136 195.514 141.685 198.232 146.133 193.213C146.496 192.801 146.804 192.347 147.065 191.86C149.67 187.022 147.219 178.749 141.105 171.572Z" stroke="#ECFDF5" stroke-width="2" stroke-linecap="round" stroke-linejoin="round"/>
<path fill-rule="evenodd" clip-rule="evenodd" d="M139.948 200.81C134.599 202.44 126.387 198.807 119.799 191.399C118.706 190.17 117.728 188.718 116.85 187.135C113.068 186.063 110.383 185.569 110.383 185.569C110.383 185.569 112.413 206.101 120.373 215.049C128.333 223.998 138.667 227.446 143.454 222.75C143.846 222.362 144.183 221.933 144.478 221.467C147.415 216.821 145.544 208.401 139.948 200.81Z" stroke="#ECFDF5" stroke-width="2" stroke-linecap="round" stroke-linejoin="round"/>
<path fill-rule="evenodd" clip-rule="evenodd" d="M137.793 228.744C132.42 230.24 124.295 226.394 117.868 218.805C116.801 217.55 115.855 216.067 115.009 214.462C111.257 213.289 108.585 212.731 108.585 212.731C108.585 212.731 110.199 233.339 117.967 242.501C125.732 251.667 135.978 255.381 140.852 250.803C141.25 250.427 141.598 250.004 141.9 249.543C144.925 244.969 143.228 236.486 137.793 228.744Z" stroke="#ECFDF5" stroke-width="2" stroke-linecap="round" stroke-linejoin="round"/>
<path fill-rule="evenodd" clip-rule="evenodd" d="M133.062 257.738C127.618 258.949 119.706 254.683 113.684 246.77C112.685 245.457 111.818 243.931 111.056 242.281C107.371 240.915 104.732 240.215 104.732 240.215C104.732 240.215 105.265 260.88 112.542 270.437C119.818 279.996 129.856 284.244 134.963 279.926C135.38 279.57 135.748 279.166 136.076 278.72C139.333 274.313 138.085 265.752 133.062 257.738Z" stroke="#ECFDF5" stroke-width="2" stroke-linecap="round" stroke-linejoin="round"/>
<path fill-rule="evenodd" clip-rule="evenodd" d="M130.74 85.9659C129.057 84.6797 127.044 83.636 124.877 82.7811C114.887 78.8483 101.556 79.0418 101.556 79.0418C101.556 79.0418 105.733 93.6869 112.937 102.343C114.083 103.721 115.304 104.953 116.599 105.944C124.409 111.917 133.158 113.884 138.158 111.26C139.199 110.713 140.081 109.972 140.755 109.022C141.074 108.568 141.332 108.081 141.541 107.569C143.886 101.829 139.401 92.5895 130.74 85.9659Z" stroke="#ECFDF5" stroke-width="2" stroke-linecap="round" stroke-linejoin="round"/>
<path fill-rule="evenodd" clip-rule="evenodd" d="M134.826 313.709C151.581 251.153 164.145 168.203 145.377 91.5633L142.623 92.2377C161.228 168.125 148.786 250.682 132.088 312.975C127.575 329.82 129.893 332.118 134.826 313.709Z" fill="#ECFDF5"/>
</g>
<path d="M367.036 166.82C372.404 168.404 376.54 171.176 379.444 175.136C382.436 179.008 383.932 183.804 383.932 189.524C383.932 197.356 381.028 203.56 375.22 208.136C369.5 212.712 361.58 215 351.46 215H316.876C313.796 215 311.42 214.164 309.748 212.492C308.076 210.82 307.24 208.444 307.24 205.364V131.576C307.24 128.496 308.076 126.12 309.748 124.448C311.42 122.776 313.796 121.94 316.876 121.94H350.14C359.82 121.94 367.476 124.096 373.108 128.408C378.828 132.72 381.688 138.616 381.688 146.096C381.688 150.936 380.368 155.204 377.728 158.9C375.176 162.508 371.612 165.148 367.036 166.82ZM327.304 159.824H346.708C351.988 159.824 355.86 158.944 358.324 157.184C360.876 155.336 362.152 152.564 362.152 148.868C362.152 144.996 360.876 142.18 358.324 140.42C355.86 138.572 351.988 137.648 346.708 137.648H327.304V159.824ZM349.084 199.292C354.54 199.292 358.5 198.368 360.964 196.52C363.428 194.672 364.66 191.68 364.66 187.544C364.66 183.408 363.428 180.372 360.964 178.436C358.5 176.5 354.54 175.532 349.084 175.532H327.304V199.292H349.084ZM406.696 215.792C403.792 215.792 401.372 215 399.436 213.416C397.588 211.832 396.664 209.5 396.664 206.42V130.652C396.664 127.572 397.588 125.24 399.436 123.656C401.372 122.072 403.792 121.28 406.696 121.28C409.512 121.28 411.844 122.072 413.692 123.656C415.628 125.24 416.596 127.572 416.596 130.652V206.42C416.596 209.5 415.628 211.832 413.692 213.416C411.844 215 409.512 215.792 406.696 215.792ZM461.027 148.604C470.531 148.604 477.571 150.936 482.147 155.6C486.723 160.176 489.011 167.216 489.011 176.72V206.552C489.011 209.456 488.175 211.744 486.503 213.416C484.831 215 482.499 215.792 479.507 215.792C476.691 215.792 474.403 214.956 472.643 213.284C470.971 211.524 470.135 209.28 470.135 206.552V205.628C468.815 208.884 466.615 211.436 463.535 213.284C460.455 215.132 456.847 216.056 452.711 216.056C448.311 216.056 444.307 215.176 440.699 213.416C437.179 211.656 434.363 209.192 432.251 206.024C430.227 202.856 429.215 199.336 429.215 195.464C429.215 190.712 430.403 186.972 432.779 184.244C435.243 181.516 439.159 179.536 444.527 178.304C449.895 177.072 457.243 176.456 466.571 176.456H470.003V174.08C470.003 170.384 469.167 167.7 467.495 166.028C465.911 164.356 463.227 163.52 459.443 163.52C455.659 163.52 450.203 164.84 443.075 167.48C441.051 168.448 439.335 168.932 437.927 168.932C435.991 168.932 434.451 168.272 433.307 166.952C432.163 165.544 431.591 163.74 431.591 161.54C431.591 159.78 431.987 158.328 432.779 157.184C433.571 156.04 434.847 154.984 436.607 154.016C439.687 152.344 443.427 151.024 447.827 150.056C452.315 149.088 456.715 148.604 461.027 148.604ZM457.067 202.328C460.939 202.328 464.063 201.052 466.439 198.5C468.815 195.86 470.003 192.472 470.003 188.336V186.092H467.759C460.631 186.092 455.615 186.664 452.711 187.808C449.895 188.952 448.487 191.02 448.487 194.012C448.487 196.476 449.279 198.5 450.863 200.084C452.535 201.58 454.603 202.328 457.067 202.328ZM533.878 216.056C527.19 216.056 521.338 214.692 516.322 211.964C511.306 209.236 507.434 205.364 504.706 200.348C502.066 195.332 500.746 189.436 500.746 182.66C500.746 175.884 502.154 169.944 504.97 164.84C507.874 159.648 511.922 155.644 517.114 152.828C522.306 150.012 528.29 148.604 535.066 148.604C538.586 148.604 542.106 149.088 545.626 150.056C549.234 151.024 552.446 152.388 555.262 154.148C557.99 155.82 559.354 158.284 559.354 161.54C559.354 163.828 558.826 165.72 557.77 167.216C556.714 168.624 555.306 169.328 553.546 169.328C552.402 169.328 551.302 169.152 550.246 168.8C549.278 168.36 547.958 167.744 546.286 166.952C544.438 165.984 542.766 165.236 541.27 164.708C539.862 164.18 538.234 163.916 536.386 163.916C531.458 163.916 527.674 165.5 525.034 168.668C522.482 171.748 521.206 176.28 521.206 182.264C521.206 188.248 522.482 192.824 525.034 195.992C527.674 199.16 531.458 200.744 536.386 200.744C538.234 200.744 539.862 200.524 541.27 200.084C542.678 199.556 544.394 198.764 546.418 197.708C548.09 196.916 549.41 196.344 550.378 195.992C551.346 195.552 552.402 195.332 553.546 195.332C555.218 195.332 556.582 196.08 557.638 197.576C558.782 199.072 559.354 200.964 559.354 203.252C559.354 206.508 557.99 208.928 555.262 210.512C552.446 212.272 549.19 213.636 545.494 214.604C541.798 215.572 537.926 216.056 533.878 216.056ZM630.256 199.556C632.28 201.492 633.292 203.692 633.292 206.156C633.292 208.62 632.368 210.82 630.52 212.756C628.76 214.692 626.692 215.66 624.316 215.66C622.028 215.66 619.916 214.736 617.98 212.888L589.072 186.092V206.288C589.072 209.368 588.104 211.7 586.168 213.284C584.32 214.868 581.988 215.66 579.172 215.66C576.268 215.66 573.848 214.868 571.912 213.284C570.064 211.7 569.14 209.368 569.14 206.288V130.652C569.14 127.572 570.064 125.24 571.912 123.656C573.848 122.072 576.268 121.28 579.172 121.28C581.988 121.28 584.32 122.072 586.168 123.656C588.104 125.24 589.072 127.572 589.072 130.652V177.908L615.472 151.904C617.408 149.968 619.564 149 621.94 149C624.404 149 626.56 149.924 628.408 151.772C630.256 153.532 631.18 155.644 631.18 158.108C631.18 160.396 630.168 162.552 628.144 164.576L610.588 181.34L630.256 199.556Z" fill="#ECFDF5"/>
<path d="M723.048 121.28C724.632 121.28 725.864 121.808 726.744 122.864C727.624 123.832 728.064 125.152 728.064 126.824V210.116C728.064 211.788 727.58 213.152 726.612 214.208C725.732 215.176 724.456 215.66 722.784 215.66C721.112 215.66 719.66 214.912 718.428 213.416L663.648 140.156V210.116C663.648 211.788 663.164 213.152 662.196 214.208C661.316 215.176 660.084 215.66 658.5 215.66C656.916 215.66 655.684 215.176 654.804 214.208C653.924 213.152 653.484 211.788 653.484 210.116V126.824C653.484 125.152 653.924 123.832 654.804 122.864C655.772 121.808 657.092 121.28 658.764 121.28C660.524 121.28 662.02 122.028 663.252 123.524L717.9 196.784V126.824C717.9 125.152 718.34 123.832 719.22 122.864C720.188 121.808 721.464 121.28 723.048 121.28ZM754.894 215.66C753.31 215.66 751.99 215.22 750.934 214.34C749.966 213.372 749.482 212.052 749.482 210.38V154.676C749.482 153.004 749.966 151.728 750.934 150.848C751.99 149.88 753.31 149.396 754.894 149.396C756.478 149.396 757.754 149.88 758.722 150.848C759.69 151.728 760.174 153.004 760.174 154.676V210.38C760.174 212.14 759.69 213.46 758.722 214.34C757.754 215.22 756.478 215.66 754.894 215.66ZM754.894 135.536C752.782 135.536 751.066 134.92 749.746 133.688C748.426 132.456 747.766 130.828 747.766 128.804C747.766 126.868 748.426 125.284 749.746 124.052C751.066 122.82 752.782 122.204 754.894 122.204C757.006 122.204 758.722 122.82 760.042 124.052C761.362 125.284 762.022 126.868 762.022 128.804C762.022 130.828 761.362 132.456 760.042 133.688C758.722 134.92 757.006 135.536 754.894 135.536ZM806.694 215.924C800.71 215.924 795.386 214.56 790.722 211.832C786.146 209.104 782.582 205.232 780.03 200.216C777.566 195.2 776.334 189.392 776.334 182.792C776.334 176.192 777.61 170.34 780.162 165.236C782.802 160.132 786.454 156.172 791.118 153.356C795.782 150.54 801.15 149.132 807.222 149.132C810.566 149.132 813.866 149.616 817.122 150.584C820.466 151.464 823.37 152.784 825.834 154.544C827.418 155.6 828.518 156.656 829.134 157.712C829.838 158.68 830.19 159.78 830.19 161.012C830.19 162.244 829.838 163.256 829.134 164.048C828.518 164.84 827.682 165.236 826.626 165.236C826.01 165.236 825.35 165.06 824.646 164.708C823.942 164.356 823.326 164.004 822.798 163.652C822.358 163.3 822.05 163.08 821.874 162.992C819.586 161.496 817.386 160.308 815.274 159.428C813.25 158.548 810.742 158.108 807.75 158.108C801.326 158.108 796.31 160.308 792.702 164.708C789.182 169.02 787.422 175.048 787.422 182.792C787.422 190.536 789.182 196.52 792.702 200.744C796.31 204.968 801.326 207.08 807.75 207.08C810.742 207.08 813.294 206.64 815.406 205.76C817.606 204.88 819.806 203.692 822.006 202.196C822.974 201.58 823.898 201.052 824.778 200.612C825.658 200.172 826.406 199.952 827.022 199.952C827.99 199.952 828.782 200.348 829.398 201.14C830.102 201.932 830.454 202.944 830.454 204.176C830.454 205.32 830.146 206.376 829.53 207.344C828.914 208.224 827.77 209.236 826.098 210.38C823.634 212.052 820.642 213.416 817.122 214.472C813.69 215.44 810.214 215.924 806.694 215.924ZM894.674 206.552C896.082 207.872 896.786 209.28 896.786 210.776C896.786 212.096 896.302 213.24 895.334 214.208C894.454 215.176 893.354 215.66 892.034 215.66C890.89 215.66 889.702 215.132 888.47 214.076L854.018 184.376V210.38C854.018 212.052 853.49 213.372 852.434 214.34C851.466 215.22 850.234 215.66 848.738 215.66C847.154 215.66 845.834 215.22 844.778 214.34C843.81 213.372 843.326 212.052 843.326 210.38V126.56C843.326 124.888 843.81 123.612 844.778 122.732C845.834 121.764 847.154 121.28 848.738 121.28C850.234 121.28 851.466 121.764 852.434 122.732C853.49 123.612 854.018 124.888 854.018 126.56V180.152L885.566 151.244C886.622 150.188 887.81 149.66 889.13 149.66C890.45 149.66 891.594 150.144 892.562 151.112C893.53 152.08 894.014 153.224 894.014 154.544C894.014 156.04 893.398 157.36 892.166 158.504L866.162 181.736L894.674 206.552ZM941.138 149.396C944.834 149.132 946.682 150.628 946.682 153.884C946.682 155.292 946.286 156.436 945.494 157.316C944.702 158.108 943.338 158.592 941.402 158.768L937.442 159.164C931.546 159.692 927.146 161.804 924.242 165.5C921.426 169.108 920.018 173.376 920.018 178.304V210.38C920.018 212.14 919.534 213.46 918.566 214.34C917.598 215.22 916.322 215.66 914.738 215.66C913.154 215.66 911.834 215.22 910.778 214.34C909.81 213.372 909.326 212.052 909.326 210.38V154.676C909.326 153.004 909.854 151.728 910.91 150.848C911.966 149.88 913.242 149.396 914.738 149.396C916.146 149.396 917.334 149.88 918.302 150.848C919.27 151.728 919.754 152.96 919.754 154.544V161.936C921.602 158.064 924.198 155.116 927.542 153.092C930.974 151.068 934.89 149.88 939.29 149.528L941.138 149.396Z" fill="#D1FAE5"/>
</svg>
