<svg width="193" height="298" viewBox="0 0 193 298" fill="none" xmlns="http://www.w3.org/2000/svg">
<path fill-rule="evenodd" clip-rule="evenodd" d="M141.014 52.7763C141.014 52.7763 139.529 53.6138 137.298 55.0701C136.83 57.4827 136.16 59.778 135.212 61.7804C130.325 72.0983 122.339 78.6635 116.586 77.4607C112.882 87.4766 113.722 96.9081 118.902 99.4687C124.687 102.327 133.692 95.5307 139.014 84.2905C144.335 73.0513 141.014 52.7763 141.014 52.7763Z" stroke="white" stroke-width="2" stroke-linecap="round" stroke-linejoin="round"/>
<path fill-rule="evenodd" clip-rule="evenodd" d="M147.132 81.1787C147.132 81.1787 145.599 81.9001 143.277 83.1826C142.644 85.5571 141.817 87.799 140.733 89.729C135.151 99.6633 126.748 105.603 121.111 103.948C116.728 113.674 116.901 123.172 121.876 126.138C127.429 129.449 136.86 123.358 142.939 112.537C149.019 101.714 147.132 81.1787 147.132 81.1787Z" stroke="white" stroke-width="2" stroke-linecap="round" stroke-linejoin="round"/>
<path fill-rule="evenodd" clip-rule="evenodd" d="M150.699 111.284C150.699 111.284 149.103 111.825 146.671 112.835C145.797 115.132 144.744 117.272 143.471 119.072C136.91 128.334 127.971 133.285 122.561 130.983C117.208 140.175 116.391 149.671 121.01 153.203C126.165 157.152 136.138 152.167 143.285 142.078C150.431 131.988 150.699 111.284 150.699 111.284Z" stroke="white" stroke-width="2" stroke-linecap="round" stroke-linejoin="round"/>
<path fill-rule="evenodd" clip-rule="evenodd" d="M151.867 141.48C151.867 141.48 150.223 141.852 147.699 142.602C146.591 144.794 145.321 146.811 143.865 148.47C136.371 156.996 126.965 160.986 121.823 158.131C115.539 166.713 113.736 176.071 117.959 180.068C122.675 184.532 133.113 180.619 141.275 171.33C149.437 162.042 151.867 141.48 151.867 141.48Z" stroke="white" stroke-width="2" stroke-linecap="round" stroke-linejoin="round"/>
<path fill-rule="evenodd" clip-rule="evenodd" d="M150.381 171.053C150.381 171.053 148.724 171.318 146.166 171.903C144.934 174.025 143.552 175.964 142.005 177.526C134.046 185.571 124.448 188.948 119.501 185.752C112.74 193.933 110.395 203.179 114.361 207.458C118.791 212.234 129.411 209.003 138.08 200.241C146.751 191.477 150.381 171.053 150.381 171.053Z" stroke="white" stroke-width="2" stroke-linecap="round" stroke-linejoin="round"/>
<path fill-rule="evenodd" clip-rule="evenodd" d="M147.097 200.544C147.097 200.544 145.439 200.754 142.876 201.263C141.595 203.35 140.169 205.25 138.59 206.767C130.459 214.581 120.809 217.667 115.953 214.311C109.015 222.296 106.452 231.492 110.303 235.906C114.605 240.829 125.27 237.922 134.127 229.41C142.984 220.897 147.097 200.544 147.097 200.544Z" stroke="white" stroke-width="2" stroke-linecap="round" stroke-linejoin="round"/>
<path fill-rule="evenodd" clip-rule="evenodd" d="M134.654 48.3816C135.748 37.12 132.221 23.7477 132.221 23.7477C132.221 23.7477 115.585 35.3793 111.34 47.0783C107.097 58.7776 108.551 70.0916 114.59 72.3506C115.085 72.536 115.597 72.6479 116.119 72.7033C121.967 73.321 129.31 65.9969 133.207 55.2564C133.963 53.1712 134.415 50.8261 134.654 48.3816ZM106.255 24.4719C101.151 14.6771 91.0184 5.88598 91.0184 5.88598C91.0184 5.88598 83.219 25.1259 85.9022 37.1273C88.5869 49.1312 95.869 57.4691 102.17 55.7514C102.685 55.6099 103.178 55.4004 103.649 55.1371C108.91 52.1957 111.181 41.9254 108.716 30.9069C108.238 28.7664 107.363 26.596 106.255 24.4719Z" stroke="white" stroke-width="2" stroke-linecap="round" stroke-linejoin="round"/>
<path fill-rule="evenodd" clip-rule="evenodd" d="M96.4197 82.5409C91.4667 85.2522 82.6838 83.4375 74.7715 77.602C73.4598 76.6339 72.2165 75.4242 71.0464 74.0658C67.1191 73.8121 64.3799 73.898 64.3799 73.898C64.3799 73.898 70.3308 93.4824 79.8909 100.534C89.4491 107.584 100.285 108.773 104.094 103.189C104.405 102.732 104.656 102.239 104.857 101.723C106.851 96.5805 103.39 88.7609 96.4197 82.5409Z" stroke="white" stroke-width="2" stroke-linecap="round" stroke-linejoin="round"/>
<path fill-rule="evenodd" clip-rule="evenodd" d="M98.4703 110.105C93.3645 112.47 84.7306 110.041 77.2223 103.652C75.9769 102.591 74.8168 101.296 73.7366 99.8576C69.8411 99.3274 67.1077 99.221 67.1077 99.221C67.1077 99.221 71.7872 119.213 80.8607 126.93C89.9321 134.648 100.651 136.595 104.8 131.282C105.138 130.847 105.42 130.371 105.652 129.869C107.968 124.869 105.017 116.814 98.4703 110.105Z" stroke="white" stroke-width="2" stroke-linecap="round" stroke-linejoin="round"/>
<path fill-rule="evenodd" clip-rule="evenodd" d="M100.105 138.572C94.8822 140.57 86.4373 137.518 79.3481 130.589C78.1723 129.438 77.0965 128.059 76.1083 126.54C72.2628 125.732 69.5494 125.431 69.5494 125.431C69.5494 125.431 73.004 145.77 81.5709 154.142C90.1358 162.514 100.685 165.232 105.133 160.213C105.496 159.801 105.804 159.347 106.065 158.86C108.67 154.022 106.219 145.749 100.105 138.572Z" stroke="white" stroke-width="2" stroke-linecap="round" stroke-linejoin="round"/>
<path fill-rule="evenodd" clip-rule="evenodd" d="M98.9481 167.811C93.5992 169.44 85.3865 165.807 78.7985 158.399C77.7063 157.17 76.7277 155.718 75.8495 154.135C72.0682 153.063 69.3825 152.569 69.3825 152.569C69.3825 152.569 71.4126 173.101 79.3729 182.049C87.3329 190.998 97.6666 194.447 102.454 189.75C102.846 189.362 103.183 188.934 103.478 188.467C106.415 183.821 104.544 175.401 98.9481 167.811Z" stroke="white" stroke-width="2" stroke-linecap="round" stroke-linejoin="round"/>
<path fill-rule="evenodd" clip-rule="evenodd" d="M96.7926 195.744C91.4204 197.24 83.2954 193.394 76.8677 185.805C75.8007 184.55 74.855 183.067 74.0085 181.462C70.2572 180.289 67.5853 179.731 67.5853 179.731C67.5853 179.731 69.1989 200.339 76.9669 209.501C84.7321 218.667 94.9782 222.381 99.8519 217.803C100.25 217.427 100.598 217.004 100.9 216.543C103.925 211.969 102.228 203.486 96.7926 195.744Z" stroke="white" stroke-width="2" stroke-linecap="round" stroke-linejoin="round"/>
<path fill-rule="evenodd" clip-rule="evenodd" d="M92.0623 224.738C86.6185 225.949 78.7059 221.683 72.6836 213.77C71.6849 212.457 70.8179 210.931 70.0562 209.281C66.3709 207.915 63.7317 207.215 63.7317 207.215C63.7317 207.215 64.2655 227.88 71.5418 237.437C78.8179 246.996 88.856 251.244 93.9629 246.926C94.3802 246.57 94.7479 246.166 95.0764 245.72C98.3333 241.313 97.0847 232.752 92.0623 224.738Z" stroke="white" stroke-width="2" stroke-linecap="round" stroke-linejoin="round"/>
<path fill-rule="evenodd" clip-rule="evenodd" d="M89.7396 52.9659C88.0572 51.6797 86.0437 50.636 83.8772 49.7811C73.8866 45.8483 60.5563 46.0418 60.5563 46.0418C60.5563 46.0418 64.7332 60.6869 71.9372 69.3434C73.0828 70.7208 74.3045 71.953 75.5991 72.9438C83.4094 78.9168 92.1583 80.8842 97.1579 78.2598C98.199 77.7126 99.0808 76.9716 99.7546 76.0216C100.074 75.5678 100.332 75.0809 100.541 74.5688C102.886 68.829 98.4015 59.5895 89.7396 52.9659Z" stroke="white" stroke-width="2" stroke-linecap="round" stroke-linejoin="round"/>
<path fill-rule="evenodd" clip-rule="evenodd" d="M93.8256 280.709C110.581 218.153 123.145 135.203 104.377 58.5633L101.623 59.2377C120.228 135.125 107.786 217.682 91.0882 279.975C86.5747 296.82 88.8928 299.118 93.8256 280.709Z" fill="white"/>
</svg>
